<svg width="25" height="26" viewBox="0 0 25 26" fill="none" xmlns="http://www.w3.org/2000/svg">
<g id="akar-icons:schedule">
<g id="Group">
<path id="Vector" d="M9.37504 21.3595H6.25004C5.14497 21.3595 4.08516 20.9281 3.30376 20.1602C2.52236 19.3923 2.08337 18.3509 2.08337 17.2649V8.05208C2.08337 6.96613 2.52236 5.92465 3.30376 5.15677C4.08516 4.38888 5.14497 3.95749 6.25004 3.95749H17.7084C18.8134 3.95749 19.8732 4.38888 20.6547 5.15677C21.4361 5.92465 21.875 6.96613 21.875 8.05208V11.123M8.33337 2.93384V4.98113M15.625 2.93384V4.98113M2.08337 9.07573H21.875M19.2709 16.8995L17.7084 18.4349" stroke="white" stroke-width="2" stroke-linecap="round" stroke-linejoin="round"/>
<path id="Vector_2" d="M17.7083 23.4069C20.5848 23.4069 22.9167 21.1154 22.9167 18.2887C22.9167 15.4619 20.5848 13.1704 17.7083 13.1704C14.8319 13.1704 12.5 15.4619 12.5 18.2887C12.5 21.1154 14.8319 23.4069 17.7083 23.4069Z" stroke="white" stroke-width="2" stroke-linecap="round" stroke-linejoin="round"/>
</g>
</g>
</svg>
