<svg width="25" height="26" viewBox="0 0 25 26" fill="none" xmlns="http://www.w3.org/2000/svg">
<g id="akar-icons:dashboard">
<path id="Vector" d="M2.08337 5.80047C2.08337 5.25749 2.30287 4.73676 2.69357 4.35281C3.08427 3.96887 3.61417 3.75317 4.16671 3.75317H10.4167V22.1788H4.16671C3.61417 22.1788 3.08427 21.9631 2.69357 21.5792C2.30287 21.1953 2.08337 20.6745 2.08337 20.1315V5.80047ZM14.5834 3.75317H20.8334C21.3859 3.75317 21.9158 3.96887 22.3065 4.35281C22.6972 4.73676 22.9167 5.25749 22.9167 5.80047V10.9187H14.5834V3.75317ZM14.5834 15.0133H22.9167V20.1315C22.9167 20.6745 22.6972 21.1953 22.3065 21.5792C21.9158 21.9631 21.3859 22.1788 20.8334 22.1788H14.5834V15.0133Z" stroke="white" stroke-width="2" stroke-linecap="round" stroke-linejoin="round"/>
</g>
</svg>
