<svg width="26" height="26" viewBox="0 0 26 26" fill="none" xmlns="http://www.w3.org/2000/svg">
<g id="carbon:report">
<path id="Vector" d="M8.125 14.4327H14.625V16.0296H8.125V14.4327ZM8.125 10.4404H17.875V12.0373H8.125V10.4404ZM8.125 18.4249H12.1875V20.0218H8.125V18.4249Z" fill="white"/>
<path id="Vector_2" d="M20.3125 4.05281H17.875V3.25436C17.875 2.83084 17.7038 2.42466 17.399 2.12519C17.0943 1.82571 16.681 1.65747 16.25 1.65747H9.75C9.31902 1.65747 8.9057 1.82571 8.60095 2.12519C8.29621 2.42466 8.125 2.83084 8.125 3.25436V4.05281H5.6875C5.25652 4.05281 4.8432 4.22105 4.53845 4.52053C4.2337 4.82 4.0625 5.22618 4.0625 5.6497V22.4171C4.0625 22.8406 4.2337 23.2468 4.53845 23.5462C4.8432 23.8457 5.25652 24.014 5.6875 24.014H20.3125C20.7435 24.014 21.1568 23.8457 21.4615 23.5462C21.7663 23.2468 21.9375 22.8406 21.9375 22.4171V5.6497C21.9375 5.22618 21.7663 4.82 21.4615 4.52053C21.1568 4.22105 20.7435 4.05281 20.3125 4.05281ZM9.75 3.25436H16.25V6.44815H9.75V3.25436ZM20.3125 22.4171H5.6875V5.6497H8.125V8.04504H17.875V5.6497H20.3125V22.4171Z" fill="white"/>
</g>
</svg>
