<svg width="25" height="25" viewBox="0 0 25 25" fill="none" xmlns="http://www.w3.org/2000/svg">
<g id="eos-icons:admin-outlined">
<path id="Vector" d="M12.5 23.6348C6.7115 22.3706 2.08337 17.0036 2.08337 11.351V5.2091L12.5 1.1145L22.9167 5.2091V11.351C22.9167 17.0056 18.2886 22.3706 12.5 23.6348ZM4.16671 6.23275V11.351C4.22624 13.7178 5.07333 16.0002 6.57835 17.849C8.08337 19.6977 10.1634 21.0109 12.5 21.5875C14.8367 21.0109 16.9167 19.6977 18.4217 17.849C19.9267 16.0002 20.7738 13.7178 20.8334 11.351V6.23275L12.5 3.1618L4.16671 6.23275Z" fill="white"/>
<path id="Vector_2" d="M12.5 11.3509C13.9383 11.3509 15.1042 10.2052 15.1042 8.79179C15.1042 7.37842 13.9383 6.23267 12.5 6.23267C11.0618 6.23267 9.89587 7.37842 9.89587 8.79179C9.89587 10.2052 11.0618 11.3509 12.5 11.3509Z" fill="white"/>
<path id="Vector_3" d="M7.29163 15.4455C7.80505 16.3649 8.55787 17.1338 9.47302 17.6734C10.3882 18.213 11.4328 18.5039 12.5 18.5164C13.5671 18.5039 14.6117 18.213 15.5269 17.6734C16.4421 17.1338 17.1949 16.3649 17.7083 15.4455C17.6823 13.5046 14.227 12.3745 12.5 12.3745C10.7635 12.3745 7.31767 13.5046 7.29163 15.4455Z" fill="white"/>
</g>
</svg>
