<svg width="25" height="25" viewBox="0 0 25 25" fill="none" xmlns="http://www.w3.org/2000/svg">
<g id="fluent:flow-16-filled">
<path id="Vector" d="M15.7032 9.4951H14.8438C14.4294 9.4951 14.032 9.65687 13.739 9.94483C13.4459 10.2328 13.2813 10.6233 13.2813 11.0306V14.1015C13.2813 14.916 12.9521 15.6971 12.366 16.273C11.78 16.8489 10.9851 17.1725 10.1563 17.1725H9.29693C9.10333 18.1045 8.56444 18.9327 7.78475 19.4966C7.00506 20.0604 6.04012 20.3196 5.07699 20.224C4.11386 20.1284 3.22117 19.6847 2.57198 18.9791C1.92279 18.2734 1.56335 17.356 1.56335 16.4047C1.56335 15.4534 1.92279 14.536 2.57198 13.8304C3.22117 13.1247 4.11386 12.6811 5.07699 12.5855C6.04012 12.4899 7.00506 12.7491 7.78475 13.3129C8.56444 13.8767 9.10333 14.7049 9.29693 15.637H10.1563C10.5707 15.637 10.9681 15.4752 11.2612 15.1873C11.5542 14.8993 11.7188 14.5087 11.7188 14.1015V11.0306C11.7188 10.2161 12.048 9.435 12.6341 8.85909C13.2201 8.28317 14.015 7.95963 14.8438 7.95963H15.7032C15.8968 7.02756 16.4357 6.19934 17.2154 5.63554C17.9951 5.07173 18.96 4.81251 19.9231 4.90812C20.8862 5.00373 21.7789 5.44737 22.4281 6.15302C23.0773 6.85868 23.4368 7.77608 23.4368 8.72736C23.4368 9.67865 23.0773 10.596 22.4281 11.3017C21.7789 12.0074 20.8862 12.451 19.9231 12.5466C18.96 12.6422 17.9951 12.383 17.2154 11.8192C16.4357 11.2554 15.8968 10.4272 15.7032 9.4951Z" fill="white"/>
</g>
</svg>
