<svg width="27" height="28" viewBox="0 0 27 28" fill="none" xmlns="http://www.w3.org/2000/svg">
<g id="fluent:feed-16-regular">
<path id="Vector" d="M7.58362 13.3289C7.35985 13.3289 7.14524 13.4162 6.987 13.5717C6.82877 13.7272 6.73987 13.9381 6.73987 14.158C6.73987 14.3779 6.82877 14.5888 6.987 14.7443C7.14524 14.8998 7.35985 14.9872 7.58362 14.9872H10.9418C11.0527 14.9876 11.1626 14.9665 11.2652 14.925C11.3677 14.8834 11.4609 14.8224 11.5394 14.7453C11.6178 14.6682 11.6799 14.5766 11.7222 14.4758C11.7644 14.3751 11.7859 14.267 11.7855 14.158C11.7855 13.9381 11.6966 13.7272 11.5384 13.5717C11.3801 13.4162 11.1655 13.3289 10.9418 13.3289H7.58362ZM7.58362 17.4912C7.35985 17.4912 7.14524 17.5786 6.987 17.7341C6.82877 17.8896 6.73987 18.1005 6.73987 18.3204C6.73987 18.5403 6.82877 18.7512 6.987 18.9067C7.14524 19.0622 7.35985 19.1495 7.58362 19.1495H10.9418C11.1655 19.1495 11.3801 19.0622 11.5384 18.9067C11.6966 18.7512 11.7855 18.5403 11.7855 18.3204C11.7855 18.1005 11.6966 17.8896 11.5384 17.7341C11.3801 17.5786 11.1655 17.4912 10.9418 17.4912H7.58362ZM8.4105 10.0122C8.4105 10.2322 8.32161 10.4431 8.16337 10.5986C8.00514 10.754 7.79053 10.8414 7.56675 10.8414C7.34297 10.8414 7.12836 10.754 6.97013 10.5986C6.81189 10.4431 6.723 10.2322 6.723 10.0122C6.723 9.79234 6.81189 9.58145 6.97013 9.42595C7.12836 9.27045 7.34297 9.18309 7.56675 9.18309C7.79053 9.18309 8.00514 9.27045 8.16337 9.42595C8.32161 9.58145 8.4105 9.79234 8.4105 10.0122ZM5.90625 5.88306C5.23492 5.88306 4.59109 6.14513 4.11639 6.61162C3.64168 7.07811 3.375 7.71081 3.375 8.37052V19.9787C3.375 20.6384 3.64168 21.2711 4.11639 21.7376C4.59109 22.2041 5.23492 22.4662 5.90625 22.4662H16.0312C17.1332 22.4695 18.2334 21.8261 18.5068 20.453L18.7532 19.2159H21.0938C21.7651 19.2159 22.4089 18.9538 22.8836 18.4873C23.3583 18.0208 23.625 17.3881 23.625 16.7284V11.7037C23.625 10.1068 22.4167 9.24279 21.1781 9.19968H15.1791V8.37052C15.1791 7.71081 14.9124 7.07811 14.4377 6.61162C13.963 6.14513 13.3191 5.88306 12.6478 5.88306H5.90625ZM15.1791 10.858H18.7059C18.663 10.9825 18.6297 11.11 18.6064 11.2394L18.3566 12.5362V12.5395L16.8497 20.1346C16.6539 21.1213 15.1791 20.9803 15.1791 19.977V10.858ZM13.4916 19.977C13.4916 20.2805 13.5354 20.5574 13.6181 20.8079H5.90625C5.68247 20.8079 5.46786 20.7205 5.30963 20.565C5.15139 20.4095 5.0625 20.1986 5.0625 19.9787V8.37052C5.0625 8.15062 5.15139 7.93972 5.30963 7.78422C5.46786 7.62872 5.68247 7.54137 5.90625 7.54137H12.6478C12.8716 7.54137 13.0862 7.62872 13.2444 7.78422C13.4027 7.93972 13.4916 8.15062 13.4916 8.37052V19.977ZM21.0938 17.5576H19.0822L20.0138 12.8529V12.848L20.2652 11.5462C20.4559 10.5578 21.9375 10.6938 21.9375 11.7004V16.7284C21.9375 16.9483 21.8486 17.1592 21.6904 17.3147C21.5321 17.4702 21.3175 17.5576 21.0938 17.5576Z" fill="white"/>
</g>
</svg>
