<svg width="25" height="26" viewBox="0 0 25 26" fill="none" xmlns="http://www.w3.org/2000/svg">
<g id="maki:doctor">
<path id="Vector" d="M9.16671 11.9645C8.06164 11.9645 7.00183 11.5331 6.22043 10.7652C5.43903 9.99731 5.00004 8.95584 5.00004 7.86988V4.59421C5.00004 4.37702 5.08784 4.16872 5.24412 4.01514C5.4004 3.86157 5.61236 3.77529 5.83337 3.77529H6.66671C6.88772 3.77529 7.09968 3.68901 7.25596 3.53543C7.41224 3.38186 7.50004 3.17356 7.50004 2.95637C7.50004 2.73918 7.41224 2.53088 7.25596 2.37731C7.09968 2.22373 6.88772 2.13745 6.66671 2.13745H5.83337C5.17033 2.13745 4.53445 2.39629 4.06561 2.85702C3.59677 3.31775 3.33337 3.94264 3.33337 4.59421V7.86988C3.33445 8.79505 3.56402 9.70613 4.00237 10.5249C4.44073 11.3436 5.07477 12.0456 5.85004 12.5705C6.5949 13.2158 7.19897 14.0028 7.62578 14.8839C8.05259 15.7649 8.2933 16.7219 8.33337 17.6969C8.33337 19.2172 8.94796 20.6753 10.0419 21.7503C11.1359 22.8254 12.6196 23.4293 14.1667 23.4293C15.7138 23.4293 17.1975 22.8254 18.2915 21.7503C19.3855 20.6753 20 19.2172 20 17.6969V16.7633C20.7856 16.564 21.4702 16.09 21.9255 15.4301C22.3809 14.7703 22.5757 13.9699 22.4735 13.1789C22.3712 12.388 21.979 11.6609 21.3702 11.1338C20.7615 10.6068 19.978 10.316 19.1667 10.316C18.3554 10.316 17.5719 10.6068 16.9632 11.1338C16.3544 11.6609 15.9622 12.388 15.8599 13.1789C15.7577 13.9699 15.9525 14.7703 16.4079 15.4301C16.8632 16.09 17.5478 16.564 18.3334 16.7633V17.6969C18.3334 18.7829 17.8944 19.8243 17.113 20.5922C16.3316 21.3601 15.2718 21.7915 14.1667 21.7915C13.0616 21.7915 12.0018 21.3601 11.2204 20.5922C10.439 19.8243 10 18.7829 10 17.6969C10.0422 16.7207 10.2855 15.763 10.7152 14.8818C11.145 14.0007 11.7521 13.2144 12.5 12.5705C13.2722 12.0438 13.903 11.341 14.3384 10.5224C14.7738 9.70373 15.0008 8.79359 15 7.86988V4.59421C15 3.94264 14.7366 3.31775 14.2678 2.85702C13.799 2.39629 13.1631 2.13745 12.5 2.13745H11.6667C11.4457 2.13745 11.2337 2.22373 11.0775 2.37731C10.9212 2.53088 10.8334 2.73918 10.8334 2.95637C10.8334 3.17356 10.9212 3.38186 11.0775 3.53543C11.2337 3.68901 11.4457 3.77529 11.6667 3.77529H12.5C12.7211 3.77529 12.933 3.86157 13.0893 4.01514C13.2456 4.16872 13.3334 4.37702 13.3334 4.59421V7.86988C13.3334 8.40759 13.2256 8.94004 13.0162 9.43682C12.8068 9.9336 12.4999 10.385 12.113 10.7652C11.7261 11.1454 11.2667 11.447 10.7612 11.6528C10.2557 11.8586 9.71388 11.9645 9.16671 11.9645ZM19.1667 15.2402C18.7247 15.2402 18.3008 15.0676 17.9882 14.7604C17.6756 14.4533 17.5 14.0367 17.5 13.6023C17.5 13.1679 17.6756 12.7513 17.9882 12.4442C18.3008 12.137 18.7247 11.9645 19.1667 11.9645C19.6087 11.9645 20.0327 12.137 20.3452 12.4442C20.6578 12.7513 20.8334 13.1679 20.8334 13.6023C20.8334 14.0367 20.6578 14.4533 20.3452 14.7604C20.0327 15.0676 19.6087 15.2402 19.1667 15.2402Z" fill="white"/>
</g>
</svg>
