<svg width="25" height="26" viewBox="0 0 25 26" fill="none" xmlns="http://www.w3.org/2000/svg">
<g id="tabler:dots">
<path id="Vector" d="M4.16663 12.926C4.16663 13.1975 4.27637 13.4578 4.47172 13.6498C4.66707 13.8418 4.93203 13.9496 5.20829 13.9496C5.48456 13.9496 5.74951 13.8418 5.94486 13.6498C6.14021 13.4578 6.24996 13.1975 6.24996 12.926C6.24996 12.6545 6.14021 12.3941 5.94486 12.2022C5.74951 12.0102 5.48456 11.9023 5.20829 11.9023C4.93203 11.9023 4.66707 12.0102 4.47172 12.2022C4.27637 12.3941 4.16663 12.6545 4.16663 12.926ZM11.4583 12.926C11.4583 13.1975 11.568 13.4578 11.7634 13.6498C11.9587 13.8418 12.2237 13.9496 12.5 13.9496C12.7762 13.9496 13.0412 13.8418 13.2365 13.6498C13.4319 13.4578 13.5416 13.1975 13.5416 12.926C13.5416 12.6545 13.4319 12.3941 13.2365 12.2022C13.0412 12.0102 12.7762 11.9023 12.5 11.9023C12.2237 11.9023 11.9587 12.0102 11.7634 12.2022C11.568 12.3941 11.4583 12.6545 11.4583 12.926ZM18.75 12.926C18.75 13.1975 18.8597 13.4578 19.0551 13.6498C19.2504 13.8418 19.5154 13.9496 19.7916 13.9496C20.0679 13.9496 20.3328 13.8418 20.5282 13.6498C20.7235 13.4578 20.8333 13.1975 20.8333 12.926C20.8333 12.6545 20.7235 12.3941 20.5282 12.2022C20.3328 12.0102 20.0679 11.9023 19.7916 11.9023C19.5154 11.9023 19.2504 12.0102 19.0551 12.2022C18.8597 12.3941 18.75 12.6545 18.75 12.926Z" stroke="white" stroke-width="2" stroke-linecap="round" stroke-linejoin="round"/>
</g>
</svg>
