<svg width="25" height="25" viewBox="0 0 25 25" fill="none" xmlns="http://www.w3.org/2000/svg">
<g id="tdesign:user">
<path id="Vector" d="M12.5 4.37249C11.5331 4.37249 10.6057 4.74996 9.92201 5.42186C9.23828 6.09376 8.85417 7.00505 8.85417 7.95526C8.85417 8.90547 9.23828 9.81676 9.92201 10.4887C10.6057 11.1606 11.5331 11.538 12.5 11.538C13.4669 11.538 14.3943 11.1606 15.078 10.4887C15.7617 9.81676 16.1458 8.90547 16.1458 7.95526C16.1458 7.00505 15.7617 6.09376 15.078 5.42186C14.3943 4.74996 13.4669 4.37249 12.5 4.37249ZM6.77083 7.95526C6.77083 6.46208 7.37444 5.03005 8.44887 3.9742C9.52329 2.91836 10.9805 2.3252 12.5 2.3252C14.0195 2.3252 15.4767 2.91836 16.5511 3.9742C17.6256 5.03005 18.2292 6.46208 18.2292 7.95526C18.2292 9.44845 17.6256 10.8805 16.5511 11.9363C15.4767 12.9922 14.0195 13.5853 12.5 13.5853C10.9805 13.5853 9.52329 12.9922 8.44887 11.9363C7.37444 10.8805 6.77083 9.44845 6.77083 7.95526ZM3.125 19.7272C3.125 18.3698 3.67373 17.0679 4.65049 16.1081C5.62724 15.1482 6.952 14.609 8.33333 14.609H16.6667C18.048 14.609 19.3728 15.1482 20.3495 16.1081C21.3263 17.0679 21.875 18.3698 21.875 19.7272V22.7982H3.125V19.7272ZM8.33333 16.6563C7.50453 16.6563 6.70968 16.9798 6.12362 17.5557C5.53757 18.1316 5.20833 18.9128 5.20833 19.7272V20.7509H19.7917V19.7272C19.7917 18.9128 19.4624 18.1316 18.8764 17.5557C18.2903 16.9798 17.4955 16.6563 16.6667 16.6563H8.33333Z" fill="white"/>
</g>
</svg>
