<svg width="25" height="26" viewBox="0 0 25 26" fill="none" xmlns="http://www.w3.org/2000/svg">
<g id="typcn:messages">
<path id="Vector" d="M21.875 7.86929H18.75C18.75 6.18027 17.3438 4.79834 15.625 4.79834H3.125C1.40625 4.79834 0 6.18027 0 7.86929V15.0348C0 16.7238 1.40625 18.1058 3.125 18.1058V21.1767L6.25 18.1058C6.25 19.7948 7.65625 21.1767 9.375 21.1767H17.7083L20.8333 24.2477V21.1767H21.875C23.5938 21.1767 25 19.7948 25 18.1058V10.9402C25 9.25121 23.5938 7.86929 21.875 7.86929ZM3.125 16.0585C2.56042 16.0585 2.08333 15.5896 2.08333 15.0348V7.86929C2.08333 7.31447 2.56042 6.84564 3.125 6.84564H15.625C16.1896 6.84564 16.6667 7.31447 16.6667 7.86929V8.89293H9.89583C9.20533 8.89348 8.54327 9.16327 8.05502 9.64308C7.56676 10.1229 7.29222 10.7735 7.29167 11.4521V16.0585H3.125ZM22.9167 18.1058C22.9167 18.6606 22.4396 19.1294 21.875 19.1294H9.375C8.81042 19.1294 8.33333 18.6606 8.33333 18.1058V11.4521C8.33333 10.6055 9.03437 9.91658 9.89583 9.91658H21.875C22.4396 9.91658 22.9167 10.3854 22.9167 10.9402V18.1058Z" fill="white"/>
</g>
</svg>
