<svg id="Layer_1" data-name="Layer 1" xmlns="http://www.w3.org/2000/svg" viewBox="0 0 7571.57 1920"><defs><style>.cls-1{fill:#ffffff;}</style></defs><path class="cls-1" d="M1686.93,1920c132.45-12.2,391.32-56.54,628.8-247.4,182.13-146.36,271.61-314.55,329.87-426.76,111.62-215,150.06-412.33,164.93-538.08-149.74,37.16-362.53,111.49-577.26,268C2150.63,1036,1993,1153.18,1856,1363.36a1399.53,1399.53,0,0,0-181,409.49c-1.79,7-4.25,16.36-7.34,27.45-2.77,9.93-4.42,14.82-5.41,14.69-1.21-.17-.94-7.55-.64-22.21,0,0,.64-31,.64-67.86h0c0-.39,4.2-99.19-30.93-271.37-81.28-398.3-381.92-719-381.92-719-262.73-278.33-568-390.81-921.55-521.08C194.42,164.33,80.5,131.21,0,109.88,8.48,278.43,40.07,527,150,805.68c58.59,148.54,139.51,348.38,323.17,553.55,40.61,45.38,249.53,273.43,612.3,423.67a1783.17,1783.17,0,0,0,491.7,125.25A3431.1,3431.1,0,0,1,955.05,1317,3424.19,3424.19,0,0,1,598.39,786.1a3992.47,3992.47,0,0,0,570,696.83,3982.79,3982.79,0,0,0,474.18,394.81c109.54-84.18,225.55-181,344.29-291.73,107.68-100.45,203.61-199.35,288.63-293.78a2874.18,2874.18,0,0,1-280.38,346.36A2875.16,2875.16,0,0,1,1686.93,1920Z"/><path class="cls-1" d="M2284.48,524.76c-42.62,103-106.69,168-233.33,293.42a3032.18,3032.18,0,0,1-314.61,271.48,1843,1843,0,0,1,285.19-614.51,1585.46,1585.46,0,0,0-307.63,587.08c-28.42-44.12-61.07-109.19-73.54-192-26.17-173.51,54.1-310.37,90-371.7,31.16-53.1,63.07-91.49,310.12-321.33C2119,104.45,2185,43.88,2233.13,0a500,500,0,0,1,83.51,167.77C2362,332.06,2306.42,471.41,2284.48,524.76Z"/><path class="cls-1" d="M3691.05,186.61l520.49,1039.16H4044.62l-131-260.23H3468.51l-129.23,260.23h-166.9Zm149,630-149-296.15-149,296.15Z"/><path class="cls-1" d="M4234.93,446.85h165.12l217.16,441.51,217.17-441.51h165.11l-382.28,778.92Z"/><path class="cls-1" d="M5080.32,1110.91c-77.18-75.38-114.87-166.92-114.87-274.6s37.69-199.22,114.87-276.4q113.06-113.05,274.57-113.06c107.71,0,199.22,37.69,276.4,113.06,75.38,77.18,113.07,168.72,113.07,276.4,0,26.91-3.6,52.05-9,79H5128.76c10.77,30.5,26.93,59.24,50.26,82.56a208.61,208.61,0,0,0,79,57.42,224.61,224.61,0,0,0,96.9,21.55,237.84,237.84,0,0,0,125.64-35.89l105.89,107.68c-68.2,52.05-145.37,77.17-231.53,77.17C5247.21,1225.77,5155.69,1188.08,5080.32,1110.91Zm504.3-342.8a247.8,247.8,0,0,0-32.3-70c-16.14-19.75-32.3-37.69-52-53.85s-43.07-26.91-68.21-35.89-50.24-12.57-77.18-12.57c-53.83,0-102.29,16.16-143.57,48.46q-64.62,48.45-86.15,123.84Z"/><path class="cls-1" d="M5852.12,768.11c0-52.05,10.75-100.49,34.1-145.37s53.83-82.56,93.31-113.06a306.5,306.5,0,0,1,132.82-59.24V604.79a177.85,177.85,0,0,0-79,61,183.06,183.06,0,0,0-32.3,95.11v464.84h-149Z"/><path class="cls-1" d="M6288.25,1157.58c-44.87-44.88-68.19-100.52-68.19-163.33h149c0,23.32,8.95,41.28,25.12,57.44s34.09,25.12,57.44,25.12q24.21,0,43.05-10.77c12.57-7.19,21.55-17.94,30.53-30.51a83.57,83.57,0,0,0,10.75-41.28c0-23.32-7.16-44.87-23.32-61s-37.69-23.35-61-23.35v1.8c-41.28,0-80.77-10.78-114.86-32.3A211.76,211.76,0,0,1,6252.36,795c-21.55-34.1-32.3-73.58-32.3-116.66,0-62.81,23.32-118.46,68.19-163.31s100.5-68.21,163.33-68.21c32.3,0,62.81,5.38,91.52,17.95a240.73,240.73,0,0,1,123.84,123.85c12.57,28.71,17.94,59.21,17.94,89.72h-149c0-23.32-7.16-43.08-23.32-59.22s-35.89-23.34-59.22-23.34-43.07,7.18-59.23,23.34S6369,655.05,6369,678.37s8.95,43.08,25.12,59.24,34.09,25.12,57.44,25.12v-1.8c64.6,0,120.23,23.34,165.1,68.2s68.2,100.51,68.2,163.32c0,64.61-23.33,120.25-68.2,165.13s-100.5,68.19-163.31,68.19C6388.75,1225.77,6333.12,1202.45,6288.25,1157.58Z"/><path class="cls-1" d="M6907.46,1110.91c-77.17-75.38-114.86-166.92-114.86-274.6s37.69-199.22,114.86-276.4Q7020.53,446.86,7182,446.85c89.74,0,170.51,28.73,240.5,84.35V446.85h149v778.92h-149v-84.36c-70,55.65-150.76,84.36-240.5,84.36C7074.36,1225.77,6982.84,1188.08,6907.46,1110.91Zm394.83-66.4c37.69-21.55,66.42-50.26,87.95-88s32.3-77.17,32.3-120.25c0-66.4-23.32-122-70-170.49-48.46-46.67-104.09-70-170.51-70s-122,23.34-168.69,70c-48.47,48.44-71.79,104.09-71.79,170.49s23.32,122.05,71.79,168.71c46.66,48.47,102.29,71.79,168.69,71.79C7225.12,1076.81,7264.6,1066,7302.29,1044.51Z"/><path class="cls-1" d="M3405.59,1474.42h59.67v339.24h-59.67v-147.1H3232.82v147.1h-59.67V1474.42h59.67v141.35h172.77Z"/><path class="cls-1" d="M3985.08,1763.94h161.77v49.72H3925.42V1474.42h218.82v49.21H3985.08v93.19h138.21l-6.8,48.16H3985.08Z"/><path class="cls-1" d="M4850.44,1810v3.65h-67.53l-91.63-128.26h-40.83v128.26h-59.67V1474.42h112q41.88,0,70.42,13.1t42.93,36.11q14.4,23.05,14.39,53.4,0,36.13-19.63,63.09t-57.31,37.94Zm-200-171.73h45q35.59,0,54.45-14.92t18.86-44.23q0-27.23-17-41.35t-49.47-14.15h-51.84Z"/><path class="cls-1" d="M5502.44,1653.73q15.44,12.84,22.51,29.06a84.37,84.37,0,0,1,7.08,34q0,29.31-14.41,51T5475,1801.63q-28.24,12.06-68.58,12h-127.2V1474.42h120.92q37.71,0,64.41,11.26t40.55,31.15q13.89,19.92,13.88,46.07a72.66,72.66,0,0,1-13.6,43.18q-13.64,19.11-41.88,29.06Q5487,1640.9,5502.44,1653.73Zm-163.6-131.15v94.24h54.41q29.57,0,47.78-11.51t18.23-37.71q0-20.38-15.33-32.7t-43.29-12.32Zm116,228.25q15.44-14.1,15.44-36.1,0-23.58-16.23-37.44t-48.7-13.87h-66.48V1765h65.44Q5439.35,1765,5454.81,1750.83Z"/><path class="cls-1" d="M6139.78,1474.42,6264.91,1810v3.65H6202.1l-31.94-90H6034.05l-31.43,90h-61.25V1810L6066,1474.42Zm-89,201h102.1l-51.31-145.54Z"/><path class="cls-1" d="M6752.28,1761.84h161.25v51.82H6692.61V1474.42h59.67Z"/><path class="cls-1" d="M7371.06,1810a189,189,0,0,1-56.54-29.33l27.75-41.88a169.85,169.85,0,0,0,96.33,31.4q34.53,0,52.86-11.78t18.32-35.34c0-9.4-2.09-17.27-6.26-23.53s-11.35-12.06-21.46-17.3-24.8-11.33-44-18.32l-10-3.65q-33.51-12.57-53.66-24.1a96.46,96.46,0,0,1-32.71-30.1q-12.57-18.55-12.57-46.84,0-30.36,17-51t44.23-30.63a168,168,0,0,1,58.11-9.94q63.87,0,116.74,35.59l-27.38,41.88q-23.7-14.62-44.49-21.46t-46.09-6.8q-26.88,0-42.67,10.22t-15.78,30.1a32,32,0,0,0,5.77,19.09c3.87,5.43,10.54,10.73,20,16s23,11,40.56,17.27l10.54,3.68q34.22,12.06,55.26,23.3a106.09,106.09,0,0,1,35.81,31.41q14.74,20.16,14.75,52.09,0,32.46-16.49,55.22t-45.55,34q-29.05,11.25-67.79,11.24T7371.06,1810Z"/></svg>