<svg id="Layer_1" data-name="Layer 1" xmlns="http://www.w3.org/2000/svg" viewBox="0 0 2810.53 1920"><defs><style>.cls-1{fill:#166332;}</style></defs><path class="cls-1" d="M1686.93,1920c132.45-12.2,391.32-56.54,628.8-247.4,182.13-146.36,271.61-314.55,329.87-426.76,111.62-215,150.06-412.33,164.93-538.08-149.74,37.16-362.53,111.49-577.26,268C2150.63,1036,1993,1153.18,1856,1363.36a1399.53,1399.53,0,0,0-181,409.49c-1.79,7-4.25,16.36-7.34,27.45-2.77,9.93-4.42,14.82-5.41,14.69-1.21-.17-.94-7.55-.64-22.21,0,0,.64-31,.64-67.86h0c0-.39,4.2-99.19-30.93-271.37-81.28-398.3-381.92-719-381.92-719-262.73-278.33-568-390.81-921.55-521.08C194.42,164.33,80.5,131.21,0,109.88,8.48,278.43,40.07,527,150,805.68c58.59,148.54,139.51,348.38,323.17,553.55,40.61,45.38,249.53,273.43,612.3,423.67a1783.17,1783.17,0,0,0,491.7,125.25A3431.1,3431.1,0,0,1,955.05,1317,3424.19,3424.19,0,0,1,598.39,786.1a3992.47,3992.47,0,0,0,570,696.83,3982.79,3982.79,0,0,0,474.18,394.81c109.54-84.18,225.55-181,344.29-291.73,107.68-100.45,203.61-199.35,288.63-293.78a2874.18,2874.18,0,0,1-280.38,346.36A2875.16,2875.16,0,0,1,1686.93,1920Z"/><path class="cls-1" d="M2284.48,524.76c-42.62,103-106.69,168-233.33,293.42a3032.18,3032.18,0,0,1-314.61,271.48,1843,1843,0,0,1,285.19-614.51,1585.46,1585.46,0,0,0-307.63,587.08c-28.42-44.12-61.07-109.19-73.54-192-26.17-173.51,54.1-310.37,90-371.7,31.16-53.1,63.07-91.49,310.12-321.33C2119,104.45,2185,43.88,2233.13,0a500,500,0,0,1,83.51,167.77C2362,332.06,2306.42,471.41,2284.48,524.76Z"/></svg>