<?xml version="1.0" encoding="utf-8"?>
<!-- Generator: Adobe Illustrator 26.0.3, SVG Export Plug-In . SVG Version: 6.00 Build 0)  -->
<svg version="1.1" id="Layer_1" xmlns="http://www.w3.org/2000/svg" xmlns:xlink="http://www.w3.org/1999/xlink" x="0px" y="0px"
	 viewBox="0 0 671 600" style="enable-background:new 0 0 671 600;" xml:space="preserve">
<style type="text/css">
	.st0{opacity:0.11;fill:#266431;}
	.st1{clip-path:url(#SVGID_00000127741767221985134090000009425639657389167504_);}
	.st2{clip-path:url(#SVGID_00000094586870336737437000000017471273805215384761_);}
	.st3{clip-path:url(#SVGID_00000176729061351942603250000006189144062111799221_);}
	.st4{clip-path:url(#SVGID_00000039131751516477455360000001065849961302249645_);}
	.st5{clip-path:url(#SVGID_00000099646232606616948620000004469394434880450711_);}
	.st6{clip-path:url(#SVGID_00000026864723502948487850000007600032282117740701_);}
	.st7{clip-path:url(#SVGID_00000157306500033551723270000005376198523048932238_);}
</style>
<path class="st0" d="M71,117c0-7.2,5.8-13,13-13h280c7.2,0,13,5.8,13,13v289c0,7.2-5.8,13-13,13H84c-7.2,0-13-5.8-13-13V117z"/>
<path class="st0" d="M395,117c0-7.2,5.8-13,13-13h160c7.2,0,13,5.8,13,13v289c0,7.2-5.8,13-13,13H408c-7.2,0-13-5.8-13-13V117z"/>
<path class="st0" d="M71,449c0-7.2,5.8-13,13-13h178c7.2,0,13,5.8,13,13v91c0,7.2-5.8,13-13,13H84c-7.2,0-13-5.8-13-13V449z"/>
<path class="st0" d="M293,449c0-7.2,5.8-13,13-13h262c7.2,0,13,5.8,13,13v91c0,7.2-5.8,13-13,13H306c-7.2,0-13-5.8-13-13V449z"/>
<g>
	<defs>
		<rect id="SVGID_1_" x="82" y="153" width="488" height="447"/>
	</defs>
	<clipPath id="SVGID_00000147213929258135013160000011037360055330013057_">
		<use xlink:href="#SVGID_1_"  style="overflow:visible;"/>
	</clipPath>
	<g style="clip-path:url(#SVGID_00000147213929258135013160000011037360055330013057_);">
		<defs>
			<rect id="SVGID_00000103240250721227861150000008209335033564868266_" x="82" y="145.5" width="488" height="462"/>
		</defs>
		<clipPath id="SVGID_00000178920566411669749420000001510338796770643866_">
			<use xlink:href="#SVGID_00000103240250721227861150000008209335033564868266_"  style="overflow:visible;"/>
		</clipPath>
		<g transform="matrix(1 0 0 1 0 0)" style="clip-path:url(#SVGID_00000178920566411669749420000001510338796770643866_);">
			
				<image style="overflow:visible;" width="4096" height="3878" xlink:href="224A741B.png"  transform="matrix(0.1191 0 0 0.1191 82 145.4863)">
			</image>
		</g>
	</g>
</g>
<g>
	<defs>
		<rect id="SVGID_00000145751811005378645510000017655103877574970017_" y="191" width="88" height="82"/>
	</defs>
	<clipPath id="SVGID_00000072265736851983576090000000390801958129466766_">
		<use xlink:href="#SVGID_00000145751811005378645510000017655103877574970017_"  style="overflow:visible;"/>
	</clipPath>
	<g style="clip-path:url(#SVGID_00000072265736851983576090000000390801958129466766_);">
		<defs>
			<rect id="SVGID_00000088853024109771306150000010873126636249314994_" y="190.3" width="88" height="83.3"/>
		</defs>
		<clipPath id="SVGID_00000103263980235581994490000009575317537590724530_">
			<use xlink:href="#SVGID_00000088853024109771306150000010873126636249314994_"  style="overflow:visible;"/>
		</clipPath>
		
			<g transform="matrix(1 0 0 1 0 -1.525879e-05)" style="clip-path:url(#SVGID_00000103263980235581994490000009575317537590724530_);">
			
				<image style="overflow:visible;" width="4096" height="3878" xlink:href="224A7419.png"  transform="matrix(2.148438e-02 0 0 2.148438e-02 0 190.3418)">
			</image>
		</g>
	</g>
</g>
<g>
	<defs>
		<rect id="SVGID_00000067203162246546155840000005460581387593685676_" x="551" y="158" width="85" height="93"/>
	</defs>
	<clipPath id="SVGID_00000043424906428925041420000002796442732814946709_">
		<use xlink:href="#SVGID_00000067203162246546155840000005460581387593685676_"  style="overflow:visible;"/>
	</clipPath>
	<g style="clip-path:url(#SVGID_00000043424906428925041420000002796442732814946709_);">
		<defs>
			<rect id="SVGID_00000170241020080348284050000003690582969583526549_" x="525.9" y="130.4" width="172.4" height="162.6"/>
		</defs>
		<clipPath id="SVGID_00000062902350023917795010000015621141492981923480_">
			<use xlink:href="#SVGID_00000170241020080348284050000003690582969583526549_"  style="overflow:visible;"/>
		</clipPath>
		<g style="clip-path:url(#SVGID_00000062902350023917795010000015621141492981923480_);">
			
				<image style="overflow:visible;" width="4096" height="3878" xlink:href="224A741F.png"  transform="matrix(4.208846e-02 0 0 4.191707e-02 525.8591 130.3766)">
			</image>
		</g>
	</g>
</g>
<g>
	<defs>
		<rect id="SVGID_00000029009767569096284200000006774169716701416884_" x="15" y="88" width="86" height="90"/>
	</defs>
	<clipPath id="SVGID_00000090272277195757518050000003245854771983415983_">
		<use xlink:href="#SVGID_00000029009767569096284200000006774169716701416884_"  style="overflow:visible;"/>
	</clipPath>
	<g style="clip-path:url(#SVGID_00000090272277195757518050000003245854771983415983_);">
		<defs>
			<rect id="SVGID_00000038398963834343819690000002916277585391201929_" x="15" y="48.8" width="193.5" height="183.1"/>
		</defs>
		<clipPath id="SVGID_00000089564409800377638370000012842513177367844244_">
			<use xlink:href="#SVGID_00000038398963834343819690000002916277585391201929_"  style="overflow:visible;"/>
		</clipPath>
		<g transform="matrix(1 0 0 1 0 0)" style="clip-path:url(#SVGID_00000089564409800377638370000012842513177367844244_);">
			
				<image style="overflow:visible;" width="4096" height="3878" xlink:href="224A7418.png"  transform="matrix(4.724121e-02 0 0 4.722481e-02 15 48.8192)">
			</image>
		</g>
	</g>
</g>
<g>
	<defs>
		<rect id="SVGID_00000127009242202771808990000013693711723508353156_" x="103" y="80" width="101" height="76"/>
	</defs>
	<clipPath id="SVGID_00000139996719338539397560000007522395484100252582_">
		<use xlink:href="#SVGID_00000127009242202771808990000013693711723508353156_"  style="overflow:visible;"/>
	</clipPath>
	<g style="clip-path:url(#SVGID_00000139996719338539397560000007522395484100252582_);">
		<defs>
			<rect id="SVGID_00000040571226446152861790000001578250042121467791_" x="15.1" y="49.6" width="188.9" height="178.6"/>
		</defs>
		<clipPath id="SVGID_00000148656913134356172320000009203786251767814815_">
			<use xlink:href="#SVGID_00000040571226446152861790000001578250042121467791_"  style="overflow:visible;"/>
		</clipPath>
		
			<g transform="matrix(1 0 0 1 9.536743e-07 0)" style="clip-path:url(#SVGID_00000148656913134356172320000009203786251767814815_);">
			
				<image style="overflow:visible;" width="4096" height="3878" xlink:href="224A7416.png"  transform="matrix(4.611405e-02 0 0 4.606681e-02 15.1169 49.642)">
			</image>
		</g>
	</g>
</g>
<g>
	<defs>
		
			<rect id="SVGID_00000072263416507169815330000006654907685972542395_" x="260.4" y="5.2" transform="matrix(0.4385 -0.8987 0.8987 0.4385 124.9794 282.7182)" width="56.7" height="72.2"/>
	</defs>
	<clipPath id="SVGID_00000152257987165127376380000010063065372404516484_">
		<use xlink:href="#SVGID_00000072263416507169815330000006654907685972542395_"  style="overflow:visible;"/>
	</clipPath>
	<g style="clip-path:url(#SVGID_00000152257987165127376380000010063065372404516484_);">
		<defs>
			
				<rect id="SVGID_00000083793673126666472370000017149872816826386066_" x="200.7" y="-54.1" transform="matrix(0.4385 -0.8987 0.8987 0.4385 138.002 247.8629)" width="133.4" height="135.1"/>
		</defs>
		<clipPath id="SVGID_00000158029322208206295470000000467749741668265657_">
			<use xlink:href="#SVGID_00000083793673126666472370000017149872816826386066_"  style="overflow:visible;"/>
		</clipPath>
		<g style="clip-path:url(#SVGID_00000158029322208206295470000000467749741668265657_);">
			
				<image style="overflow:visible;" width="4096" height="3878" xlink:href="224A7417.png"  transform="matrix(2.964432e-02 1.446462e-02 1.508117e-02 -3.090791e-02 177.4156 43.7932)">
			</image>
		</g>
	</g>
</g>
<g>
	<defs>
		<rect id="SVGID_00000042714161968483413370000000031862564841492398_" x="503" y="48" width="69" height="94"/>
	</defs>
	<clipPath id="SVGID_00000072974691993196982630000002285337227774312362_">
		<use xlink:href="#SVGID_00000042714161968483413370000000031862564841492398_"  style="overflow:visible;"/>
	</clipPath>
	<g style="clip-path:url(#SVGID_00000072974691993196982630000002285337227774312362_);">
		<defs>
			<rect id="SVGID_00000062870618144689898970000017381710457389548953_" x="474.4" y="34.1" width="141.9" height="133.5"/>
		</defs>
		<clipPath id="SVGID_00000030459162449702906260000017653344061177095588_">
			<use xlink:href="#SVGID_00000062870618144689898970000017381710457389548953_"  style="overflow:visible;"/>
		</clipPath>
		<g transform="matrix(1 0 0 1 0 0)" style="clip-path:url(#SVGID_00000030459162449702906260000017653344061177095588_);">
			
				<image style="overflow:visible;" width="4096" height="3878" xlink:href="224A7427.png"  transform="matrix(3.465402e-02 0 0 3.442383e-02 474.4143 34.1272)">
			</image>
		</g>
	</g>
</g>
<g>
	<defs>
		<rect id="SVGID_00000072245572228668366610000013326166375587661957_" x="402" y="65" width="60" height="58"/>
	</defs>
	<clipPath id="SVGID_00000054980616980383511920000004448907308193521280_">
		<use xlink:href="#SVGID_00000072245572228668366610000013326166375587661957_"  style="overflow:visible;"/>
	</clipPath>
	<g style="clip-path:url(#SVGID_00000054980616980383511920000004448907308193521280_);">
		<image style="overflow:visible;" width="120" height="116" xlink:href="224A7429.png"  transform="matrix(0.5 0 0 0.5 402 65)">
		</image>
	</g>
</g>
<g>
	<defs>
		<rect id="SVGID_00000015327497417566361110000006560328394843218343_" x="378" y="46" width="58" height="31"/>
	</defs>
	<clipPath id="SVGID_00000057843912237188403570000007240817764058167206_">
		<use xlink:href="#SVGID_00000015327497417566361110000006560328394843218343_"  style="overflow:visible;"/>
	</clipPath>
	<g style="clip-path:url(#SVGID_00000057843912237188403570000007240817764058167206_);">
		<image style="overflow:visible;" width="116" height="62" xlink:href="224A742B.png"  transform="matrix(0.5 0 0 0.5 378 46)">
		</image>
	</g>
</g>
<g>
	<defs>
		<rect id="SVGID_00000082362520781793653090000006894209546300013497_" x="605" y="226" width="47" height="46"/>
	</defs>
	<clipPath id="SVGID_00000085224216258138799260000014615423043099755699_">
		<use xlink:href="#SVGID_00000082362520781793653090000006894209546300013497_"  style="overflow:visible;"/>
	</clipPath>
	<g style="clip-path:url(#SVGID_00000085224216258138799260000014615423043099755699_);">
		<image style="overflow:visible;" width="94" height="92" xlink:href="F4C2C7F8.png"  transform="matrix(0.5 0 0 0.5 605 226)">
		</image>
	</g>
</g>
<g>
	<defs>
		<rect id="SVGID_00000052074712097534361250000004623366682805438886_" x="628" y="72" width="43" height="41"/>
	</defs>
	<clipPath id="SVGID_00000032610843300988553780000015610061862550556067_">
		<use xlink:href="#SVGID_00000052074712097534361250000004623366682805438886_"  style="overflow:visible;"/>
	</clipPath>
	<g style="clip-path:url(#SVGID_00000032610843300988553780000015610061862550556067_);">
		<image style="overflow:visible;" width="86" height="82" xlink:href="F4C2C7FF.png"  transform="matrix(0.5 0 0 0.5 628 72)">
		</image>
	</g>
</g>
<g>
	<defs>
		<rect id="SVGID_00000057140396570235058960000005140933922904892808_" x="58" y="37" width="47" height="45"/>
	</defs>
	<clipPath id="SVGID_00000132777376836782241400000009711315798718669216_">
		<use xlink:href="#SVGID_00000057140396570235058960000005140933922904892808_"  style="overflow:visible;"/>
	</clipPath>
	<g style="clip-path:url(#SVGID_00000132777376836782241400000009711315798718669216_);">
		<image style="overflow:visible;" width="94" height="90" xlink:href="F4C2C7F9.png"  transform="matrix(0.5 0 0 0.5 58 37)">
		</image>
	</g>
</g>
<g>
	<defs>
		<rect id="SVGID_00000082363345635247845740000010654406819810846881_" x="160" y="114" width="52" height="49"/>
	</defs>
	<clipPath id="SVGID_00000132045589417546551880000007649977080970871480_">
		<use xlink:href="#SVGID_00000082363345635247845740000010654406819810846881_"  style="overflow:visible;"/>
	</clipPath>
	<g style="clip-path:url(#SVGID_00000132045589417546551880000007649977080970871480_);">
		<image style="overflow:visible;" width="104" height="98" xlink:href="F4C2C7FB.png"  transform="matrix(0.5 0 0 0.5 160 114)">
		</image>
	</g>
</g>
</svg>
